#!OML:ASF X:\für Bonn\!DataBase\2005_08_12_Daniel\c3d\Daniel.ASF
:FULLY-SPECIFIED
:DEGREES
162
root -3.51298 17.0311 -2.93274 315.597 -79.2128 -324.101
lowerback 19.6959 -2.30624 -2.76023
upperback 0.886371 -4.25278 -4.11693
thorax -10.2222 -2.06001 -1.74185
lowerneck 5.44401 12.2544 4.9043
upperneck 5.71377 16.5839 -3.98752
head 1.70128 8.30553 -1.98613
rclavicle 1.15916e-014 -1.47101e-014
rhumerus 54.9374 -7.42995 -107.608
rradius 8.73396
rwrist 77.6671
rhand -18.7094 11.5708
rfingers 7.12502
rthumb 7.58566 -18.2732
lclavicle 1.15916e-014 -1.47101e-014
lhumerus 58.9772 -7.01845 84.6269
lradius 9.62057
lwrist -54.5558
lhand -15.8882 3.24269
lfingers 7.12502
lthumb 10.308 32.9701
rfemur -0.610928 0.677495 10.1674
rtibia 34.6256
rfoot -30.9196 -10.0323
rtoes -13.197
lfemur -10.0255 -7.68906 -22.2019
ltibia 37.4715
lfoot -21.3832 -3.91136
ltoes -1.18881
163
root -3.53695 17.0729 -2.94344 315.537 -79.2037 -323.778
lowerback 19.1409 -2.27048 -2.84124
upperback 0.685354 -4.20254 -4.15794
thorax -10.133 -2.03313 -1.7732
lowerneck 5.5246 12.2308 4.91295
upperneck 5.8094 16.5514 -3.88232
head 1.70778 8.28985 -1.95798
rclavicle 5.76413e-014 1.19271e-014
rhumerus 54.5801 -7.49266 -107.482
rradius 8.82799
rwrist 77.3717
rhand -18.771 11.6141
rfingers 7.12502
rthumb 7.52616 -18.232
lclavicle 5.76413e-014 1.19271e-014
lhumerus 58.9203 -7.0587 84.6315
lradius 9.57406
lwrist -54.7714
lhand -15.7898 3.08407
lfingers 7.12502
lthumb 10.4029 32.8067
rfemur 0.0707682 2.82697 10.92
rtibia 33.3078
rfoot -31.9287 -11.9405
rtoes -12.9297
lfemur -9.5377 -8.92775 -22.4455
ltibia 36.4301
lfoot -21.4659 -2.5522
ltoes -1.27112
164
root -3.55995 17.1083 -2.95456 315.42 -79.2036 -323.403
lowerback 18.582 -2.23457 -2.94649
upperback 0.507137 -4.15475 -4.19101
thorax -10.0125 -2.00679 -1.78117
lowerneck 5.60745 12.2153 4.94679
upperneck 5.88762 16.5318 -3.80496
head 1.71397 8.28117 -1.94267
rclavicle 3.90798e-014 3.93594e-014
rhumerus 54.3355 -7.49935 -107.376
rradius 8.85018
rwrist 77.0776
rhand -18.8848 11.6055
rfingers 7.12502
rthumb 7.4163 -18.2445
lclavicle 3.90798e-014 3.93594e-014
lhumerus 58.8919 -7.06042 84.6208
lradius 9.54078
lwrist -54.9324
lhand -15.6689 2.94292
lfingers 7.12502
lthumb 10.5195 32.6597
rfemur 0.692342 5.02457 11.6777
rtibia 32.1592
rfoot -33.0804 -13.7928
rtoes -12.4608
lfemur -9.1203 -10.1824 -22.6865
ltibia 35.5312
lfoot -21.5983 -1.18569
ltoes -1.40368
165
root -3.58075 17.1373 -2.96587 315.37 -79.2193 -323.142
lowerback 18.0895 -2.20724 -3.00746
upperback 0.344757 -4.11072 -4.21752
thorax -9.91298 -1.98399 -1.80336
lowerneck 5.73254 12.2099 4.9118
upperneck 5.92505 16.5213 -3.69201
head 1.69041 8.2764 -1.91039
rclavicle 1.18743e-014 9.93923e-015
rhumerus 54.1394 -7.49588 -107.263
rradius 8.83652
rwrist 76.8119
rhand -19.0365 11.6029
rfingers 7.12502
rthumb 7.26992 -18.2522
lclavicle 1.18743e-014 9.93923e-015
lhumerus 58.8935 -7.04165 84.6064
lradius 9.47757
lwrist -55.1168
lhand -15.5105 2.83198
lfingers 7.12502
lthumb 10.6724 32.5409
rfemur 1.29209 7.26468 12.4711
rtibia 31.1651
rfoot -34.3749 -15.6108
rtoes -12.119
lfemur -8.73062 -11.4647 -22.9043
ltibia 34.7682
lfoot -21.8063 0.203341
ltoes -1.50008
166
root -3.6003 17.1606 -2.97768 315.39 -79.2641 -322.937
lowerback 17.5977 -2.18158 -3.04409
upperback 0.176104 -4.06347 -4.24156
thorax -9.82128 -1.96062 -1.83695
lowerneck 5.79945 12.1795 4.83636
upperneck 6.00052 16.4717 -3.5125
head 1.67686 8.25099 -1.84701
rclavicle 4.64116e-015 8.74653e-015
rhumerus 53.9445 -7.48952 -107.165
rradius 8.84065
rwrist 76.6037
rhand -19.1789 11.5572
rfingers 7.12502
rthumb 7.13248 -18.3026
lclavicle 4.64116e-015 8.74653e-015
lhumerus 58.8747 -7.04363 84.5911
lradius 9.42599
lwrist -55.2797
lhand -15.3701 2.77664
lfingers 7.12502
lthumb 10.8077 32.4786
rfemur 1.80847 9.53955 13.3001
rtibia 30.3306
rfoot -35.7743 -17.3873
rtoes -11.6972
lfemur -8.4275 -12.8298 -23.0984
ltibia 34.1391
lfoot -22.0798 1.64076
ltoes -1.51511
167
root -3.61804 17.1783 -2.98926 315.334 -79.2971 -322.686
lowerback 17.1136 -2.15316 -3.08478
upperback 0.0577605 -4.01157 -4.26502
thorax -9.67668 -1.93612 -1.86831
lowerneck 5.79478 12.1382 4.62632
upperneck 6.05157 16.3963 -3.25871
head 1.64677 8.21013 -1.73743
rclavicle 8.9919e-015 1.74931e-014
rhumerus 53.8147 -7.46464 -107.058
rradius 8.87088
rwrist 76.4536
rhand -19.2923 11.5234
rfingers 7.12502
rthumb 7.02298 -18.3401
lclavicle 8.9919e-015 1.74931e-014
lhumerus 58.935 -7.02116 84.571
lradius 9.36178
lwrist -55.4379
lhand -15.1983 2.75468
lfingers 7.12502
lthumb 10.9735 32.4479
rfemur 2.30358 11.8205 14.1166
rtibia 29.651
rfoot -37.3495 -19.0391
rtoes -11.1224
lfemur -8.15829 -14.2524 -23.321
ltibia 33.637
lfoot -22.4341 3.12899
ltoes -1.65656
168
root -3.63283 17.1908 -3.00117 315.29 -79.3596 -322.481
lowerback 16.6931 -2.12707 -3.09626
upperback -0.0489908 -3.96082 -4.29288
thorax -9.55696 -1.91347 -1.91808
lowerneck 5.77895 12.0916 4.43288
upperneck 6.11034 16.314 -2.99715
head 1.62201 8.16617 -1.62738
rclavicle 1.07219e-014 -2.50469e-014
rhumerus 53.6399 -7.43327 -106.979
rradius 8.97382
rwrist 76.3325
rhand -19.3725 11.4786
rfingers 7.12502
rthumb 6.94555 -18.3875
lclavicle 1.07219e-014 -2.50469e-014
lhumerus 58.9919 -7.00576 84.5299
lradius 9.30948
lwrist -55.6191
lhand -15.0656 2.72929
lfingers 7.12502
lthumb 11.1015 32.4157
rfemur 2.75925 14.0856 14.9607
rtibia 29.1115
rfoot -38.9893 -20.6334
rtoes -10.6309
lfemur -7.92188 -15.6659 -23.5131
ltibia 33.2522
lfoot -22.8135 4.57643
ltoes -1.64698
169
root -3.64557 17.1987 -3.01177 315.142 -79.4409 -322.171
lowerback 16.2598 -2.09961 -3.11702
upperback -0.127772 -3.90583 -4.30424
thorax -9.39649 -1.88845 -1.94576
lowerneck 5.72649 12.0583 4.19072
upperneck 6.1781 16.246 -2.72511
head 1.60204 8.12821 -1.50428
rclavicle 1.93318e-014 4.29375e-014
rhumerus 53.4998 -7.35179 -106.887
rradius 9.09949
rwrist 76.3005
rhand -19.3731 11.4149
rfingers 7.12502
rthumb 6.94499 -18.4512
lclavicle 1.93318e-014 4.29375e-014
lhumerus 59.1033 -6.9499 84.4997
lradius 9.21632
lwrist -55.7393
lhand -15.0087 2.71682
lfingers 7.12502
lthumb 11.1564 32.4002
rfemur 3.1499 16.2095 15.7444
rtibia 28.6958
rfoot -40.6135 -22.0117
rtoes -10.1604
lfemur -7.74645 -16.9882 -23.6906
ltibia 32.9748
lfoot -23.2549 5.92075
ltoes -1.78794
170
root -3.65516 17.2041 -3.02186 315.14 -79.5393 -322.04
lowerback 15.8733 -2.08808 -3.09586
upperback -0.171996 -3.86472 -4.31171
thorax -9.22673 -1.87213 -1.98777
lowerneck 5.66766 12.0217 3.98521
upperneck 6.19604 16.178 -2.51232
head 1.57633 8.091 -1.40634
rclavicle -2.95319e-014 1.51076e-014
rhumerus 53.4343 -7.2344 -106.825
rradius 9.22793
rwrist 76.2972
rhand -19.298 11.3689
rfingers 7.12502
rthumb 7.01754 -18.4948
lclavicle -2.95319e-014 1.51076e-014
lhumerus 59.2656 -6.87356 84.4427
lradius 9.09654
lwrist -55.8874
lhand -15.0476 2.72419
lfingers 7.12502
lthumb 11.1189 32.4096
rfemur 3.50246 18.1096 16.4988
rtibia 28.3799
rfoot -42.1807 -23.1158
rtoes -9.6173
lfemur -7.6087 -18.239 -23.8099
ltibia 32.7806
lfoot -23.6952 7.14947
ltoes -1.72412
171
root -3.66242 17.2069 -3.0303 314.935 -79.6534 -321.719
lowerback 15.5253 -2.06337 -3.09464
upperback -0.213427 -3.81218 -4.31718
thorax -9.07394 -1.84908 -2.01749
lowerneck 5.63725 11.9677 3.81309
upperneck 6.21884 16.0895 -2.3189
head 1.55192 8.0443 -1.32144
rclavicle -7.45443e-017 2.50469e-014
rhumerus 53.3931 -7.10203 -106.759
rradius 9.33222
rwrist 76.2969
rhand -19.1772 11.3248
rfingers 7.12502
rthumb 7.13408 -18.5349
lclavicle -7.45443e-017 2.50469e-014
lhumerus 59.4 -6.80209 84.4007
lradius 8.98337
lwrist -55.9685
lhand -15.1482 2.77975
lfingers 7.12502
lthumb 11.0218 32.4704
rfemur 3.79625 19.7619 17.1396
rtibia 28.1176
rfoot -43.503 -24.0589
rtoes -9.09773
lfemur -7.51515 -19.2454 -23.9088
ltibia 32.6575
lfoot -24.1041 8.13958
ltoes -1.65847
